<?xml version="1.0" standalone="no"?>
<!DOCTYPE svg PUBLIC "-//W3C//DTD SVG 1.1//EN" "http://www.w3.org/Graphics/SVG/1.1/DTD/svg11.dtd">
<!--Generator: Xara Designer (www.xara.com), SVG filter version: 6.1.0.18-->
<svg stroke-width="0.501" stroke-linejoin="bevel" fill-rule="evenodd" xmlns:xlink="http://www.w3.org/1999/xlink" xmlns="http://www.w3.org/2000/svg" version="1.1" overflow="visible" width="547.5pt" height="105pt" viewBox="0 0 547.5 105">
 <defs>
	</defs>
 <g id="Document" fill="none" stroke="black" font-family="Times New Roman" font-size="16" transform="scale(1 -1)">
  <g id="Spread" transform="translate(0 -105)">
   <g id="Page background">
    <path d="M 0.001,104.999 L 0.001,0 L 547.498,0 L 547.498,104.999 L 0.001,104.999 Z" stroke-linejoin="bevel" stroke="none" stroke-width="0" marker-start="none" marker-end="none" stroke-miterlimit="79.8403193612775"/>
   </g>
   <g id="MouseOff">
    <g id="Group">
     <path d="M 15.034,41.385 C 17.486,41.385 19.509,42.244 21.103,43.963 C 22.699,45.681 23.496,47.833 23.496,50.419 C 23.496,52.982 22.69,55.138 21.076,56.886 C 19.462,58.636 17.448,59.511 15.034,59.511 C 12.583,59.511 10.55,58.64 8.936,56.896 C 7.323,55.153 6.517,52.994 6.517,50.419 C 6.517,47.809 7.311,45.649 8.9,43.945 C 10.489,42.238 12.533,41.385 15.034,41.385 Z M 29.445,50.419 C 29.445,48.486 29.086,46.657 28.366,44.932 C 27.644,43.207 26.607,41.693 25.252,40.387 C 23.848,39.044 22.264,38.016 20.503,37.301 C 18.742,36.587 16.919,36.23 15.034,36.23 C 13.384,36.23 11.767,36.51 10.184,37.071 C 8.602,37.631 7.15,38.434 5.832,39.482 C 4.133,40.836 2.831,42.457 1.925,44.341 C 1.019,46.225 0.567,48.253 0.567,50.419 C 0.567,52.367 0.924,54.192 1.638,55.898 C 2.352,57.604 3.399,59.123 4.78,60.454 C 6.134,61.77 7.708,62.793 9.5,63.52 C 11.293,64.246 13.137,64.61 15.034,64.61 C 16.919,64.61 18.752,64.246 20.531,63.52 C 22.311,62.793 23.885,61.77 25.252,60.454 C 26.619,59.123 27.66,57.601 28.375,55.889 C 29.089,54.177 29.445,52.355 29.445,50.419 Z" stroke="none" fill="#231f20" stroke-width="0.043" fill-rule="nonzero" stroke-linejoin="miter" marker-start="none" marker-end="none"/>
     <path d="M 15.034,41.385 C 17.486,41.385 19.509,42.244 21.103,43.963 C 22.699,45.681 23.496,47.833 23.496,50.419 C 23.496,52.982 22.69,55.138 21.076,56.886 C 19.462,58.636 17.448,59.511 15.034,59.511 C 12.583,59.511 10.55,58.64 8.936,56.896 C 7.323,55.153 6.517,52.994 6.517,50.419 C 6.517,47.809 7.311,45.649 8.9,43.945 C 10.489,42.238 12.533,41.385 15.034,41.385 Z M 29.445,50.419 C 29.445,48.486 29.086,46.657 28.366,44.932 C 27.644,43.207 26.607,41.693 25.252,40.387 C 23.848,39.044 22.264,38.016 20.503,37.301 C 18.742,36.587 16.919,36.23 15.034,36.23 C 13.384,36.23 11.767,36.51 10.184,37.071 C 8.602,37.631 7.15,38.434 5.832,39.482 C 4.133,40.836 2.831,42.457 1.925,44.341 C 1.019,46.225 0.567,48.253 0.567,50.419 C 0.567,52.367 0.924,54.192 1.638,55.898 C 2.352,57.604 3.399,59.123 4.78,60.454 C 6.134,61.77 7.708,62.793 9.5,63.52 C 11.293,64.246 13.137,64.61 15.034,64.61 C 16.919,64.61 18.752,64.246 20.531,63.52 C 22.311,62.793 23.885,61.77 25.252,60.454 C 26.619,59.123 27.66,57.601 28.375,55.889 C 29.089,54.177 29.445,52.355 29.445,50.419 Z" fill="none" stroke="#231f20" stroke-width="1.022" stroke-linejoin="round" stroke-linecap="round" marker-start="none" marker-end="none"/>
     <path d="M 30.387,36.95 L 34.507,64 L 40.568,64 L 45.779,48.073 C 45.889,47.741 46.009,47.254 46.139,46.613 C 46.268,45.973 46.388,45.24 46.499,44.414 C 46.597,45.253 46.708,46.001 46.831,46.66 C 46.956,47.318 47.072,47.802 47.183,48.11 L 52.485,64 L 58.454,64 L 62.592,36.95 L 57.105,36.95 L 55.128,53.266 C 54.979,54.473 54.881,55.384 54.831,55.999 C 54.782,56.616 54.758,57.188 54.758,57.719 C 54.758,58.001 54.762,58.213 54.767,58.356 C 54.773,58.497 54.782,58.623 54.795,58.734 C 54.61,57.675 54.435,56.76 54.268,55.99 C 54.103,55.22 53.951,54.638 53.816,54.245 L 48.088,36.95 L 44.836,36.95 L 39.2,54.245 C 39.152,54.405 39.043,54.848 38.878,55.576 C 38.711,56.301 38.48,57.361 38.184,58.753 L 38.184,57.958 C 38.184,56.701 38.074,55.162 37.852,53.339 L 37.833,53.266 L 35.875,36.95 L 30.387,36.95 Z" stroke="none" fill="#231f20" stroke-width="0.043" fill-rule="nonzero" stroke-linejoin="round" stroke-linecap="round" marker-start="none" marker-end="none"/>
     <path d="M 30.387,36.95 L 34.507,64 L 40.568,64 L 45.779,48.073 C 45.889,47.741 46.009,47.254 46.139,46.613 C 46.268,45.973 46.388,45.24 46.499,44.414 C 46.597,45.253 46.708,46.001 46.831,46.66 C 46.956,47.318 47.072,47.802 47.183,48.11 L 52.485,64 L 58.454,64 L 62.592,36.95 L 57.105,36.95 L 55.128,53.266 C 54.979,54.473 54.881,55.384 54.831,55.999 C 54.782,56.616 54.758,57.188 54.758,57.719 C 54.758,58.001 54.762,58.213 54.767,58.356 C 54.773,58.497 54.782,58.623 54.795,58.734 C 54.61,57.675 54.435,56.76 54.268,55.99 C 54.103,55.22 53.951,54.638 53.816,54.245 L 48.088,36.95 L 44.836,36.95 L 39.2,54.245 C 39.152,54.405 39.043,54.848 38.878,55.576 C 38.711,56.301 38.48,57.361 38.184,58.753 L 38.184,57.958 C 38.184,56.701 38.074,55.162 37.852,53.339 L 37.833,53.266 L 35.875,36.95 L 30.387,36.95 Z" fill="none" stroke="#231f20" stroke-width="1.022" stroke-linejoin="round" stroke-linecap="round" marker-start="none" marker-end="none"/>
     <path d="M 65.101,36.95 L 65.101,64 L 71.105,64 L 83.078,48.258 C 83.424,47.815 83.803,47.189 84.215,46.383 C 84.628,45.576 85.056,44.624 85.499,43.528 C 85.363,44.328 85.266,45.124 85.204,45.911 C 85.141,46.7 85.112,47.685 85.112,48.868 L 85.112,64 L 90.636,64 L 90.664,42.871 C 90.664,42.871 86.488,42.892 82.546,40.07 C 82.472,40.017 72.657,52.988 72.657,52.988 C 72.313,53.432 71.938,54.056 71.532,54.864 C 71.125,55.671 70.693,56.634 70.238,57.756 C 70.372,56.979 70.471,56.194 70.533,55.399 C 70.595,54.604 70.626,53.603 70.626,52.397 L 70.626,36.95 L 65.101,36.95 Z" stroke="none" fill="#231f20" stroke-width="0.043" fill-rule="nonzero" stroke-linejoin="round" stroke-linecap="round" marker-start="none" marker-end="none"/>
     <path d="M 65.101,36.95 L 65.101,64 L 71.105,64 L 83.078,48.258 C 83.424,47.815 83.803,47.189 84.215,46.383 C 84.628,45.576 85.056,44.624 85.499,43.528 C 85.363,44.328 85.266,45.124 85.204,45.911 C 85.141,46.7 85.112,47.685 85.112,48.868 L 85.112,64 L 90.636,64 L 90.664,42.871 C 90.664,42.871 86.488,42.892 82.546,40.07 C 82.472,40.017 72.657,52.988 72.657,52.988 C 72.313,53.432 71.938,54.056 71.532,54.864 C 71.125,55.671 70.693,56.634 70.238,57.756 C 70.372,56.979 70.471,56.194 70.533,55.399 C 70.595,54.604 70.626,53.603 70.626,52.397 L 70.626,36.95 L 65.101,36.95 Z" fill="none" stroke="#231f20" stroke-width="1.022" stroke-linejoin="round" stroke-linecap="round" marker-start="none" marker-end="none"/>
     <path d="M 95.095,42.392 C 95.104,41.199 95.107,64 95.107,64 L 96.587,63.963 C 96.587,63.963 98.375,61.14 100.87,59.399 C 100.891,58.309 100.869,43.479 100.849,38.834 C 100.849,38.834 98.982,41.134 95.095,42.392 Z" stroke="none" fill="#231f20" stroke-width="0.043" fill-rule="nonzero" stroke-linejoin="round" stroke-linecap="round" marker-start="none" marker-end="none"/>
     <path d="M 95.095,42.392 C 95.104,41.199 95.107,64 95.107,64 L 96.587,63.963 C 96.587,63.963 98.375,61.14 100.87,59.399 C 100.891,58.309 100.869,43.479 100.849,38.834 C 100.849,38.834 98.982,41.134 95.095,42.392 Z" fill="none" stroke="#231f20" stroke-width="1.022" stroke-linejoin="round" stroke-linecap="round" marker-start="none" marker-end="none"/>
     <path d="M 103.422,57.869 C 103.422,57.869 126.308,43.548 122.711,27.852 C 122.711,27.852 121.721,37.374 113.624,40.442 C 113.624,40.442 105.017,42.316 109.738,49.869 C 109.738,49.869 106.407,52.285 103.518,52.039 C 103.518,52.039 108.64,53.359 103.422,57.869 Z" stroke="none" fill="#d7d7d7" stroke-width="0.043" fill-rule="nonzero" stroke-linejoin="round" stroke-linecap="round" marker-start="none" marker-end="none"/>
     <path d="M 99.213,76.871 C 99.213,76.871 90.178,68.505 104.285,58.995 C 104.285,58.995 123.842,46.958 124.96,31.035 C 124.96,31.035 125.733,25.194 120.267,18.824 C 125.339,21.424 131.279,31.417 125.87,41.232 C 125.87,41.232 121.282,51.407 109.845,59.02 C 109.845,59.02 109.087,59.945 110.42,61.539 C 110.42,61.539 107.946,61.697 107.9,60.184 C 107.9,60.184 101.549,64.183 103.069,69.031 C 103.069,69.031 104.341,73.408 107.439,73.293 C 107.439,73.293 105.085,75.635 101.237,73.63 C 101.237,73.63 98.683,74.311 99.213,76.871 Z" stroke="none" fill="#c8c8c8" stroke-width="0.043" fill-rule="nonzero" stroke-linejoin="round" stroke-linecap="round" marker-start="none" marker-end="none"/>
     <path d="M 103.2,94.96 C 103.2,94.96 90.856,81.41 109.835,78.663 C 109.835,78.663 97.18,81.441 103.2,94.96 Z" stroke="none" fill="#c8c8c8" stroke-width="0.043" fill-rule="nonzero" stroke-linejoin="round" stroke-linecap="round" marker-start="none" marker-end="none"/>
     <path d="M 109.387,77.703 C 109.387,77.703 111.361,77.834 110.674,78.914 C 110.674,78.914 98.523,85.488 107.351,93.178 C 107.351,93.178 103.13,85.048 112.934,78.506 C 112.934,78.506 117.393,75.608 109.387,77.703 Z" stroke="none" fill="#c8c8c8" stroke-width="0.043" fill-rule="nonzero" stroke-linejoin="round" stroke-linecap="round" marker-start="none" marker-end="none"/>
     <path d="M 112.755,90.011 C 112.755,90.011 105.723,85.871 114.724,77.703 C 114.724,77.703 115.029,77.363 114.809,77.122 C 114.809,77.122 116.357,77.324 114.63,79.2 C 114.63,79.2 109.434,85.669 112.755,90.011 Z" stroke="none" fill="#c8c8c8" stroke-width="0.043" fill-rule="nonzero" stroke-linejoin="round" stroke-linecap="round" marker-start="none" marker-end="none"/>
     <path d="M 110.686,74.295 C 110.686,74.295 113.679,74.28 114.812,71.709 C 114.812,71.709 114.876,71.216 115.359,70.898 C 115.359,70.898 123.458,69.482 119.156,62.377 C 119.156,62.377 119.732,67.738 115.043,67.99 C 115.043,67.99 112.65,68.971 114.582,70.277 C 114.582,70.277 114.377,71.041 113.693,70.947 C 113.693,70.947 111.411,70.638 111.484,73.059 C 111.484,73.059 111.728,73.695 110.686,74.295 Z" stroke="none" fill="#c8c8c8" stroke-width="0.043" fill-rule="nonzero" stroke-linejoin="round" stroke-linecap="round" marker-start="none" marker-end="none"/>
     <path d="M 90.994,21.712 C 92.981,21.712 94.622,22.409 95.914,23.802 C 97.209,25.195 97.855,26.94 97.855,29.037 C 97.855,31.115 97.201,32.863 95.893,34.281 C 94.585,35.699 92.95,36.409 90.994,36.409 C 89.006,36.409 87.359,35.702 86.05,34.288 C 84.742,32.876 84.088,31.124 84.088,29.037 C 84.088,26.92 84.731,25.17 86.019,23.787 C 87.308,22.404 88.966,21.712 90.994,21.712 Z M 102.68,29.037 C 102.68,27.47 102.388,25.986 101.803,24.588 C 101.218,23.189 100.377,21.961 99.278,20.904 C 98.14,19.814 96.856,18.98 95.429,18.401 C 94.001,17.821 92.522,17.532 90.994,17.532 C 89.655,17.532 88.344,17.759 87.062,18.214 C 85.778,18.668 84.602,19.32 83.533,20.168 C 82.155,21.267 81.099,22.58 80.365,24.109 C 79.63,25.636 79.264,27.28 79.264,29.037 C 79.264,30.615 79.554,32.097 80.132,33.48 C 80.711,34.862 81.56,36.093 82.679,37.173 C 83.778,38.241 85.054,39.069 86.508,39.658 C 87.96,40.248 89.456,40.543 90.994,40.543 C 92.522,40.543 94.007,40.248 95.451,39.658 C 96.894,39.069 98.171,38.241 99.278,37.173 C 100.387,36.093 101.231,34.86 101.81,33.472 C 102.39,32.084 102.68,30.606 102.68,29.037 Z" stroke="none" fill="#fbb040" stroke-width="0.043" fill-rule="nonzero" stroke-linejoin="round" stroke-linecap="round" marker-start="none" marker-end="none"/>
     <path d="M 90.994,21.712 C 92.981,21.712 94.622,22.409 95.914,23.802 C 97.209,25.195 97.855,26.94 97.855,29.037 C 97.855,31.115 97.201,32.863 95.893,34.281 C 94.585,35.699 92.95,36.409 90.994,36.409 C 89.006,36.409 87.359,35.702 86.05,34.288 C 84.742,32.876 84.088,31.124 84.088,29.037 C 84.088,26.92 84.731,25.17 86.019,23.787 C 87.308,22.404 88.966,21.712 90.994,21.712 Z M 102.68,29.037 C 102.68,27.47 102.388,25.986 101.803,24.588 C 101.218,23.189 100.377,21.961 99.278,20.904 C 98.14,19.814 96.856,18.98 95.429,18.401 C 94.001,17.821 92.522,17.532 90.994,17.532 C 89.655,17.532 88.344,17.759 87.062,18.214 C 85.778,18.668 84.602,19.32 83.533,20.168 C 82.155,21.267 81.099,22.58 80.365,24.109 C 79.63,25.636 79.264,27.28 79.264,29.037 C 79.264,30.615 79.554,32.097 80.132,33.48 C 80.711,34.862 81.56,36.093 82.679,37.173 C 83.778,38.241 85.054,39.069 86.508,39.658 C 87.96,40.248 89.456,40.543 90.994,40.543 C 92.522,40.543 94.007,40.248 95.451,39.658 C 96.894,39.069 98.171,38.241 99.278,37.173 C 100.387,36.093 101.231,34.86 101.81,33.472 C 102.39,32.084 102.68,30.606 102.68,29.037 Z" fill="none" stroke="#fbb040" stroke-width="1.022" stroke-linejoin="round" stroke-linecap="round" marker-start="none" marker-end="none"/>
     <path d="M 103.539,20.904 L 106.145,23.854 C 106.475,23.045 107.004,22.409 107.733,21.944 C 108.462,21.48 109.281,21.247 110.19,21.247 C 111.289,21.247 112.158,21.507 112.797,22.026 C 113.436,22.545 113.756,23.244 113.756,24.124 C 113.756,25.162 112.692,26.196 110.565,27.225 C 109.876,27.554 109.331,27.824 108.932,28.034 C 107.014,29.032 105.685,30.009 104.946,30.963 C 104.207,31.916 103.838,33.052 103.838,34.371 C 103.838,36.179 104.554,37.664 105.987,38.828 C 107.421,39.99 109.281,40.573 111.568,40.573 C 112.896,40.573 114.043,40.341 115.006,39.876 C 115.97,39.412 116.821,38.686 117.561,37.697 L 114.789,35.045 C 114.46,35.684 114.023,36.161 113.478,36.476 C 112.934,36.791 112.277,36.947 111.508,36.947 C 110.579,36.947 109.831,36.715 109.261,36.251 C 108.692,35.787 108.407,35.184 108.407,34.446 C 108.407,33.287 109.536,32.229 111.793,31.27 C 112.243,31.08 112.586,30.93 112.827,30.82 C 114.684,29.972 116.06,29.013 116.954,27.944 C 117.848,26.876 118.295,25.657 118.295,24.289 C 118.295,22.23 117.593,20.59 116.19,19.367 C 114.786,18.143 112.902,17.532 110.535,17.532 C 108.857,17.532 107.419,17.821 106.22,18.401 C 105.022,18.98 104.128,19.814 103.539,20.904 Z" stroke="none" fill="#fbb040" stroke-width="0.043" fill-rule="nonzero" stroke-linejoin="round" stroke-linecap="round" marker-start="none" marker-end="none"/>
     <path d="M 103.539,20.904 L 106.145,23.854 C 106.475,23.045 107.004,22.409 107.733,21.944 C 108.462,21.48 109.281,21.247 110.19,21.247 C 111.289,21.247 112.158,21.507 112.797,22.026 C 113.436,22.545 113.756,23.244 113.756,24.124 C 113.756,25.162 112.692,26.196 110.565,27.225 C 109.876,27.554 109.331,27.824 108.932,28.034 C 107.014,29.032 105.685,30.009 104.946,30.963 C 104.207,31.916 103.838,33.052 103.838,34.371 C 103.838,36.179 104.554,37.664 105.987,38.828 C 107.421,39.99 109.281,40.573 111.568,40.573 C 112.896,40.573 114.043,40.341 115.006,39.876 C 115.97,39.412 116.821,38.686 117.561,37.697 L 114.789,35.045 C 114.46,35.684 114.023,36.161 113.478,36.476 C 112.934,36.791 112.277,36.947 111.508,36.947 C 110.579,36.947 109.831,36.715 109.261,36.251 C 108.692,35.787 108.407,35.184 108.407,34.446 C 108.407,33.287 109.536,32.229 111.793,31.27 C 112.243,31.08 112.586,30.93 112.827,30.82 C 114.684,29.972 116.06,29.013 116.954,27.944 C 117.848,26.876 118.295,25.657 118.295,24.289 C 118.295,22.23 117.593,20.59 116.19,19.367 C 114.786,18.143 112.902,17.532 110.535,17.532 C 108.857,17.532 107.419,17.821 106.22,18.401 C 105.022,18.98 104.128,19.814 103.539,20.904 Z" fill="none" stroke="#fbb040" stroke-width="1.022" stroke-linejoin="round" stroke-linecap="round" marker-start="none" marker-end="none"/>
     <g id="Group_1" fill-rule="nonzero" stroke-linejoin="miter" stroke="none" stroke-width="0.124" fill="#c7c7c7">
      <path d="M 5.323,21.725 L 5.323,19.701 C 4.626,19.389 4.05,19.232 3.593,19.232 C 2.569,19.232 1.714,19.57 1.026,20.244 C 0.343,20.922 0,21.768 0,22.78 C 0,23.797 0.317,24.639 0.952,25.308 C 1.587,25.978 2.394,26.314 3.37,26.314 C 4.051,26.314 4.71,26.154 5.347,25.838 L 5.347,23.926 C 4.756,24.21 4.216,24.35 3.726,24.35 C 3.272,24.35 2.906,24.213 2.63,23.935 C 2.352,23.659 2.214,23.295 2.214,22.843 C 2.214,22.393 2.352,22.03 2.627,21.753 C 2.901,21.477 3.261,21.338 3.708,21.338 C 4.118,21.338 4.655,21.468 5.323,21.725 Z" marker-start="none" marker-end="none"/>
      <path d="M 6.749,22.762 C 6.749,23.812 7.084,24.668 7.752,25.332 C 8.422,25.998 9.283,26.33 10.333,26.33 C 11.307,26.33 12.125,25.992 12.786,25.314 C 13.449,24.636 13.781,23.797 13.781,22.794 C 13.781,21.772 13.449,20.922 12.786,20.244 C 12.125,19.57 11.298,19.232 10.301,19.232 C 9.178,19.232 8.305,19.59 7.681,20.305 C 7.061,21.02 6.749,21.838 6.749,22.762 Z M 11.788,22.762 C 11.788,23.221 11.636,23.622 11.334,23.964 C 11.034,24.307 10.684,24.478 10.283,24.478 C 9.868,24.478 9.51,24.317 9.208,23.996 C 8.908,23.675 8.757,23.291 8.757,22.843 C 8.757,22.351 8.906,21.933 9.205,21.591 C 9.502,21.249 9.861,21.078 10.283,21.078 C 10.684,21.078 11.034,21.245 11.334,21.581 C 11.636,21.916 11.788,22.309 11.788,22.762 Z" marker-start="none" marker-end="none"/>
      <path d="M 17.666,26.179 L 17.666,25.097 C 17.759,25.16 17.9,25.28 18.084,25.459 C 18.27,25.639 18.448,25.792 18.62,25.915 C 18.791,26.04 18.995,26.139 19.233,26.214 C 19.476,26.292 19.694,26.33 19.888,26.33 C 20.2,26.33 20.537,26.221 20.901,26 C 21.264,25.782 21.568,25.394 21.812,24.836 C 22.232,25.374 22.646,25.756 23.048,25.986 C 23.451,26.216 23.828,26.33 24.178,26.33 C 24.794,26.33 25.315,26.077 25.741,25.567 C 26.168,25.06 26.381,24.433 26.381,23.687 L 26.381,19.377 L 24.356,19.377 L 24.356,23.148 C 24.356,23.524 24.253,23.839 24.047,24.094 C 23.843,24.35 23.597,24.478 23.306,24.478 C 22.958,24.478 22.659,24.332 22.406,24.041 C 22.152,23.753 22.025,23.409 22.025,23.009 L 22.025,19.377 L 20.016,19.377 L 20.016,23.054 C 20.016,23.45 19.91,23.783 19.703,24.055 C 19.493,24.327 19.241,24.464 18.946,24.464 C 18.599,24.464 18.299,24.315 18.045,24.018 C 17.792,23.72 17.666,23.362 17.666,22.945 L 17.666,19.377 L 15.624,19.377 L 15.624,26.179 L 17.666,26.179 Z" marker-start="none" marker-end="none"/>
      <path d="M 30.499,26.179 L 30.499,25.097 C 30.592,25.16 30.732,25.28 30.916,25.459 C 31.102,25.639 31.28,25.792 31.451,25.915 C 31.622,26.04 31.826,26.139 32.067,26.214 C 32.307,26.292 32.526,26.33 32.72,26.33 C 33.031,26.33 33.369,26.221 33.733,26 C 34.097,25.782 34.399,25.394 34.643,24.836 C 35.065,25.374 35.477,25.756 35.881,25.986 C 36.283,26.216 36.66,26.33 37.009,26.33 C 37.626,26.33 38.147,26.077 38.574,25.567 C 39,25.06 39.213,24.433 39.213,23.687 L 39.213,19.377 L 37.189,19.377 L 37.189,23.148 C 37.189,23.524 37.086,23.839 36.879,24.094 C 36.675,24.35 36.428,24.478 36.138,24.478 C 35.79,24.478 35.49,24.332 35.237,24.041 C 34.984,23.753 34.857,23.409 34.857,23.009 L 34.857,19.377 L 32.847,19.377 L 32.847,23.054 C 32.847,23.45 32.742,23.783 32.534,24.055 C 32.324,24.327 32.073,24.464 31.778,24.464 C 31.43,24.464 31.131,24.315 30.878,24.018 C 30.624,23.72 30.499,23.362 30.499,22.945 L 30.499,19.377 L 28.456,19.377 L 28.456,26.179 L 30.499,26.179 Z" marker-start="none" marker-end="none"/>
      <path d="M 41.178,26.165 L 43.235,26.165 L 43.235,22.907 C 43.235,22.435 43.355,22.042 43.594,21.729 C 43.835,21.417 44.131,21.261 44.483,21.261 C 44.86,21.261 45.173,21.411 45.429,21.714 C 45.684,22.017 45.812,22.398 45.812,22.857 L 45.812,26.165 L 47.869,26.165 L 47.869,22.21 C 47.869,21.371 47.549,20.668 46.91,20.101 C 46.269,19.533 45.472,19.249 44.515,19.249 C 43.502,19.249 42.693,19.534 42.085,20.104 C 41.481,20.673 41.178,21.431 41.178,22.376 L 41.178,26.165 Z" marker-start="none" marker-end="none"/>
      <path d="M 51.975,26.179 L 51.975,25.375 C 52.667,26.021 53.392,26.344 54.153,26.344 C 54.8,26.344 55.338,26.078 55.762,25.546 C 56.186,25.014 56.398,24.335 56.398,23.507 L 56.398,19.377 L 54.341,19.377 L 54.341,23.18 C 54.341,23.572 54.235,23.902 54.02,24.169 C 53.808,24.438 53.549,24.572 53.242,24.572 C 52.873,24.572 52.569,24.402 52.331,24.063 C 52.094,23.722 51.975,23.285 51.975,22.748 L 51.975,19.377 L 49.951,19.377 L 49.951,26.179 L 51.975,26.179 Z" marker-start="none" marker-end="none"/>
      <path d="M 58.226,28.697 C 58.226,29.038 58.351,29.332 58.6,29.579 C 58.847,29.827 59.144,29.952 59.492,29.952 C 59.841,29.952 60.139,29.827 60.384,29.579 C 60.633,29.332 60.757,29.038 60.757,28.697 C 60.757,28.347 60.633,28.049 60.384,27.801 C 60.139,27.554 59.841,27.431 59.492,27.431 C 59.144,27.431 58.847,27.554 58.6,27.801 C 58.351,28.049 58.226,28.347 58.226,28.697 Z M 58.485,26.179 L 60.511,26.179 L 60.511,19.377 L 58.485,19.377 L 58.485,26.179 Z" marker-start="none" marker-end="none"/>
      <path d="M 62.6,28.514 L 64.625,28.514 L 64.625,26.179 L 65.599,26.179 L 65.599,24.32 L 64.625,24.32 L 64.625,19.377 L 62.6,19.377 L 62.6,24.32 L 61.826,24.32 L 61.826,26.179 L 62.6,26.179 L 62.6,28.514 Z" marker-start="none" marker-end="none"/>
      <path d="M 66.255,26.165 L 68.415,26.165 L 70.37,22.21 L 72.11,26.165 L 74.18,26.165 L 69.951,16.378 L 67.845,16.378 L 69.364,19.857 L 66.255,26.165 Z" marker-start="none" marker-end="none"/>
     </g>
     <g id="Group_2" fill-rule="nonzero" stroke-linejoin="miter" stroke="none" stroke-width="0.124" fill="#c7c7c7">
      <path d="M 53.914,8.161 L 49.062,8.161 C 49.089,7.727 49.233,7.371 49.494,7.097 C 49.754,6.823 50.059,6.685 50.408,6.685 C 51.029,6.685 51.517,6.966 51.87,7.53 L 53.73,6.913 C 53.039,5.705 51.965,5.1 50.51,5.1 C 49.439,5.1 48.586,5.424 47.955,6.073 C 47.321,6.723 47.005,7.595 47.005,8.692 C 47.005,9.679 47.339,10.507 48.006,11.175 C 48.675,11.844 49.496,12.18 50.472,12.18 C 51.452,12.18 52.269,11.829 52.925,11.125 C 53.584,10.423 53.914,9.543 53.914,8.488 L 53.914,8.161 Z M 49.079,9.522 L 51.814,9.522 C 51.624,10.373 51.19,10.798 50.51,10.798 C 50.121,10.798 49.798,10.687 49.54,10.464 C 49.284,10.244 49.131,9.931 49.079,9.522 Z" marker-start="none" marker-end="none"/>
      <path d="M 59.771,15.805 L 61.812,15.805 L 61.812,5.244 L 59.819,5.244 L 59.819,6.407 L 59.788,6.407 C 59.197,5.557 58.462,5.132 57.586,5.132 C 56.807,5.132 56.14,5.47 55.59,6.151 C 55.039,6.833 54.764,7.665 54.764,8.647 C 54.764,9.627 55.049,10.463 55.619,11.156 C 56.188,11.851 56.87,12.198 57.668,12.198 C 58.12,12.198 58.502,12.115 58.814,11.948 C 59.126,11.781 59.444,11.511 59.771,11.136 L 59.771,15.805 Z M 58.276,10.187 C 57.943,10.187 57.631,10.033 57.341,9.726 C 57.052,9.421 56.908,9.009 56.908,8.488 C 56.908,8.071 57.036,7.715 57.292,7.42 C 57.547,7.125 57.857,6.977 58.219,6.977 C 58.654,6.977 59.014,7.137 59.302,7.455 C 59.593,7.774 59.739,8.17 59.739,8.647 C 59.739,9.056 59.596,9.415 59.313,9.723 C 59.032,10.032 58.686,10.187 58.276,10.187 Z" marker-start="none" marker-end="none"/>
      <path d="M 63.605,14.563 C 63.605,14.906 63.73,15.201 63.979,15.446 C 64.227,15.694 64.524,15.82 64.872,15.82 C 65.221,15.82 65.518,15.694 65.764,15.446 C 66.012,15.201 66.138,14.906 66.138,14.563 C 66.138,14.215 66.012,13.916 65.764,13.668 C 65.518,13.422 65.221,13.298 64.872,13.298 C 64.524,13.298 64.227,13.422 63.979,13.668 C 63.73,13.916 63.605,14.215 63.605,14.563 Z M 63.866,12.046 L 65.891,12.046 L 65.891,5.244 L 63.866,5.244 L 63.866,12.046 Z" marker-start="none" marker-end="none"/>
      <path d="M 67.899,14.381 L 69.923,14.381 L 69.923,12.046 L 70.898,12.046 L 70.898,10.187 L 69.923,10.187 L 69.923,5.244 L 67.899,5.244 L 67.899,10.187 L 67.125,10.187 L 67.125,12.046 L 67.899,12.046 L 67.899,14.381 Z" marker-start="none" marker-end="none"/>
      <path d="M 71.86,14.563 C 71.86,14.906 71.984,15.201 72.233,15.446 C 72.481,15.694 72.78,15.82 73.126,15.82 C 73.475,15.82 73.772,15.694 74.019,15.446 C 74.268,15.201 74.392,14.906 74.392,14.563 C 74.392,14.215 74.268,13.916 74.019,13.668 C 73.772,13.422 73.475,13.298 73.126,13.298 C 72.78,13.298 72.481,13.422 72.233,13.668 C 71.984,13.916 71.86,14.215 71.86,14.563 Z M 72.122,12.046 L 74.145,12.046 L 74.145,5.244 L 72.122,5.244 L 72.122,12.046 Z" marker-start="none" marker-end="none"/>
      <path d="M 75.974,8.63 C 75.974,9.679 76.308,10.536 76.976,11.198 C 77.646,11.865 78.507,12.198 79.557,12.198 C 80.531,12.198 81.349,11.86 82.011,11.182 C 82.674,10.505 83.006,9.663 83.006,8.66 C 83.006,7.64 82.674,6.789 82.011,6.112 C 81.349,5.438 80.521,5.1 79.525,5.1 C 78.403,5.1 77.529,5.457 76.905,6.172 C 76.284,6.886 75.974,7.706 75.974,8.63 Z M 81.011,8.63 C 81.011,9.088 80.86,9.489 80.559,9.832 C 80.258,10.174 79.908,10.346 79.507,10.346 C 79.092,10.346 78.734,10.184 78.431,9.863 C 78.131,9.543 77.981,9.158 77.981,8.71 C 77.981,8.218 78.13,7.801 78.428,7.458 C 78.726,7.117 79.085,6.945 79.507,6.945 C 79.908,6.945 80.258,7.113 80.559,7.448 C 80.86,7.783 81.011,8.176 81.011,8.63 Z" marker-start="none" marker-end="none"/>
      <path d="M 86.855,12.046 L 86.855,11.242 C 87.545,11.889 88.273,12.212 89.031,12.212 C 89.68,12.212 90.216,11.945 90.642,11.414 C 91.066,10.881 91.278,10.202 91.278,9.374 L 91.278,5.244 L 89.221,5.244 L 89.221,9.047 C 89.221,9.439 89.114,9.769 88.901,10.035 C 88.688,10.304 88.427,10.44 88.121,10.44 C 87.753,10.44 87.449,10.27 87.21,9.931 C 86.973,9.59 86.855,9.152 86.855,8.616 L 86.855,5.244 L 84.83,5.244 L 84.83,12.046 L 86.855,12.046 Z" marker-start="none" marker-end="none"/>
     </g>
    </g>
    <path d="M 116.857,56.695 C 119.619,58.865 122.591,60.479 122.669,64.783 L 547.5,64.798 L 547.5,36.31 L 130.076,36.238 C 128.536,43.201 125.05,49.442 116.857,56.695 Z" stroke="none" fill="#000000" stroke-linejoin="miter" marker-start="none" marker-end="none"/>
   </g>
  </g>
 </g>
</svg>
