<?xml version="1.0" standalone="no"?>
<!DOCTYPE svg PUBLIC "-//W3C//DTD SVG 1.1//EN" "http://www.w3.org/Graphics/SVG/1.1/DTD/svg11.dtd">
<!--Generator: Xara Designer (www.xara.com), SVG filter version: 6.6.0.1-->
<svg fill="none" fill-rule="evenodd" stroke="black" stroke-width="0.501" stroke-linejoin="bevel" stroke-miterlimit="10" font-family="Times New Roman" font-size="16" style="font-variant-ligatures:none" xmlns:xlink="http://www.w3.org/1999/xlink" xmlns="http://www.w3.org/2000/svg" version="1.1" overflow="visible" width="226.772pt" height="158.741pt" viewBox="0 -158.741 226.772 158.741">
 <defs>
	</defs>
 <g id="Layer 1" transform="scale(1 -1)">
  <path d="M 19.388,56.077 C 16.546,57.083 13.943,58.527 11.576,60.404 C 8.524,62.84 6.177,65.756 4.544,69.153 C 2.913,72.551 2.099,76.2 2.099,80.091 C 2.099,83.583 2.739,86.87 4.029,89.947 C 5.318,93.024 7.206,95.761 9.685,98.151 C 12.12,100.519 14.949,102.356 18.164,103.66 C 21.38,104.962 24.696,105.617 28.105,105.617 C 31.495,105.617 34.79,104.962 37.985,103.66 C 41.178,102.354 44.006,100.519 46.464,98.151 C 48.923,95.758 50.799,93.015 52.087,89.929 C 53.374,86.845 54.016,83.562 54.016,80.091 C 54.016,76.621 53.37,73.328 52.071,70.223 C 50.772,67.115 48.9,64.383 46.462,62.034 C 43.942,59.623 41.099,57.775 37.935,56.493 C 34.772,55.209 31.492,54.567 28.105,54.567 C 25.137,54.567 22.231,55.071 19.388,56.077 Z M 53.884,56.839 L 61.038,103.804 C 61.104,104.239 61.476,104.559 61.917,104.559 L 72.439,104.559 C 72.824,104.559 73.164,104.313 73.283,103.948 L 82.328,76.297 C 82.432,75.984 82.539,75.604 82.647,75.163 L 82.697,74.942 L 82.764,75.258 C 82.871,75.701 82.977,76.074 83.084,76.374 L 92.288,103.953 C 92.409,104.316 92.747,104.559 93.131,104.559 L 103.491,104.559 C 103.929,104.559 104.303,104.239 104.369,103.806 L 111.557,56.839 C 111.638,56.303 111.223,55.819 110.678,55.819 L 101.15,55.819 C 100.701,55.819 100.324,56.154 100.268,56.6 L 96.835,84.925 C 96.773,85.45 96.713,85.943 96.658,86.405 L 96.551,87.368 L 96.281,86.45 L 86.339,56.426 C 86.218,56.063 85.877,55.819 85.496,55.819 L 79.848,55.819 C 79.466,55.819 79.123,56.064 79.005,56.431 L 69.219,86.463 C 69.168,86.626 69.095,86.909 68.997,87.308 L 68.893,87.748 L 68.859,87.353 C 68.786,86.617 68.7,85.849 68.604,85.052 C 68.599,85.017 68.593,84.978 68.584,84.942 L 68.564,84.87 L 65.171,56.6 C 65.118,56.154 64.739,55.819 64.29,55.819 L 54.763,55.819 C 54.219,55.819 53.803,56.302 53.884,56.839 Z M 114.145,56.706 L 114.145,103.671 C 114.145,104.161 114.544,104.559 115.034,104.559 L 125.459,104.559 C 125.736,104.559 125.998,104.429 126.165,104.209 L 146.95,76.88 C 147.273,76.467 147.607,75.973 147.95,75.407 L 148.982,73.539 L 148.93,74.546 C 148.902,75.414 148.89,76.365 148.89,77.397 L 148.89,103.671 C 148.89,104.161 149.288,104.559 149.777,104.559 L 159.368,104.559 C 159.858,104.559 160.255,104.163 160.256,103.672 L 160.304,66.988 C 160.304,66.495 159.904,66.096 159.412,66.099 C 159.478,66.097 152.456,66.139 145.84,61.399 C 145.508,61.163 145.059,61.182 144.749,61.445 L 144.71,61.477 C 144.684,61.497 144.66,61.52 144.64,61.545 C 143.685,62.551 127.411,84.064 127.448,84.013 C 127.126,84.427 126.795,84.918 126.455,85.486 L 125.436,87.353 L 125.472,86.427 C 125.5,85.547 125.514,84.578 125.514,83.525 L 125.514,56.706 C 125.514,56.216 125.115,55.819 124.627,55.819 L 115.034,55.819 C 114.544,55.819 114.145,56.216 114.145,56.706 Z M 176.41,59.416 C 176.469,59.345 173.74,62.731 168.021,64.894 L 167.148,65.201 L 167.111,65.197 C 166.629,65.197 166.235,65.584 166.224,66.066 C 166.224,66.085 166.224,66.114 166.224,66.148 L 166.226,66.167 L 166.226,66.268 C 166.239,69.033 166.245,103.66 166.245,103.671 C 166.245,104.17 166.656,104.571 167.156,104.559 L 169.724,104.495 C 170.02,104.487 170.293,104.332 170.452,104.083 C 170.446,104.092 173.471,99.324 177.644,96.412 C 177.877,96.248 178.018,95.983 178.024,95.699 C 178.062,93.793 178.023,68.03 177.987,59.972 C 177.983,59.141 176.934,58.77 176.41,59.416 Z M 37.993,69.484 C 40.594,72.286 41.91,75.799 41.91,80.091 C 41.91,84.336 40.581,87.858 37.944,90.718 C 35.313,93.57 32.053,94.989 28.105,94.989 C 24.089,94.989 20.799,93.571 18.17,90.733 C 15.534,87.885 14.205,84.358 14.205,80.091 C 14.205,75.754 15.517,72.231 18.104,69.454 C 20.683,66.686 23.991,65.293 28.105,65.293 C 32.127,65.293 35.4,66.69 37.993,69.484 Z" stroke-width="0.15" stroke="none" fill-rule="evenodd" fill="#231f20" marker-start="none" marker-end="none"/>
  <path d="M 218.965,46.435 C 217.022,74.081 183.066,94.982 183.066,94.982 C 158.573,111.493 174.262,126.017 174.262,126.017 C 173.34,121.574 177.775,120.389 177.775,120.389 C 184.454,123.872 188.544,119.804 188.544,119.804 C 183.164,120.004 180.955,112.405 180.955,112.405 C 178.316,103.99 189.346,97.046 189.346,97.046 C 189.425,99.671 193.718,99.396 193.718,99.396 C 191.405,96.631 192.72,95.023 192.72,95.023 C 212.578,81.807 220.544,64.141 220.544,64.141 C 229.936,47.099 219.622,29.75 210.815,25.233 C 220.304,36.293 218.965,46.435 218.965,46.435 Z M 199.283,62.767 C 199.283,62.767 184.339,66.022 192.535,79.136 C 192.535,79.136 186.752,83.329 181.735,82.903 C 181.735,82.903 190.629,85.196 181.569,93.026 C 181.569,93.026 221.303,68.161 215.059,40.911 C 215.059,40.911 213.341,57.438 199.283,62.767 Z M 201.745,110.6 C 201.745,110.6 197.589,112.303 200.944,114.569 C 200.944,114.569 200.589,115.894 199.401,115.734 C 199.401,115.734 195.439,115.195 195.566,119.4 C 195.566,119.4 195.991,120.504 194.181,121.545 C 194.181,121.545 199.376,121.52 201.345,117.056 C 201.345,117.056 201.455,116.2 202.294,115.646 C 202.294,115.646 216.355,113.188 208.887,100.852 C 208.887,100.852 209.886,110.162 201.745,110.6 Z M 191.925,127.463 C 191.925,127.463 195.353,127.689 194.159,129.566 C 194.159,129.566 173.064,140.98 188.39,154.331 C 188.39,154.331 181.06,140.214 198.083,128.857 C 198.083,128.857 205.827,123.827 191.925,127.463 Z M 201.191,127.463 C 185.563,141.643 197.772,148.832 197.772,148.832 C 192.007,141.294 201.027,130.063 201.027,130.063 C 204.028,126.804 201.34,126.454 201.34,126.454 C 201.719,126.873 201.191,127.463 201.191,127.463 Z M 181.181,157.425 C 170.73,133.952 192.7,129.128 192.7,129.128 C 159.751,133.898 181.181,157.425 181.181,157.425 Z" stroke-linejoin="round" stroke-width="0.073" stroke-linecap="round" stroke="none" fill-rule="nonzero" fill="#c8c8c8" marker-start="none" marker-end="none"/>
  <path d="M 152.865,23.337 C 150.545,24.16 148.417,25.338 146.483,26.873 C 143.99,28.862 142.069,31.246 140.737,34.026 C 139.401,36.803 138.737,39.787 138.737,42.967 C 138.737,45.819 139.259,48.507 140.313,51.023 C 141.367,53.538 142.912,55.776 144.937,57.729 C 146.926,59.666 149.239,61.166 151.866,62.233 C 154.494,63.296 157.202,63.831 159.99,63.831 C 162.761,63.831 165.453,63.296 168.063,62.231 C 170.673,61.165 172.985,59.666 174.992,57.729 C 177.001,55.773 178.537,53.532 179.591,51.009 C 180.642,48.486 181.167,45.802 181.167,42.967 C 181.167,40.131 180.638,37.439 179.577,34.899 C 178.514,32.359 176.984,30.126 174.989,28.204 C 172.932,26.235 170.61,24.725 168.023,23.677 C 165.438,22.628 162.758,22.103 159.99,22.103 C 157.564,22.103 155.188,22.515 152.865,23.337 Z M 186.04,23.7 C 183.805,24.781 182.109,26.355 180.99,28.421 C 180.813,28.749 180.858,29.153 181.105,29.431 L 185.631,34.555 C 186.066,35.048 186.87,34.912 187.118,34.303 C 187.621,33.067 188.421,32.106 189.529,31.401 C 190.647,30.69 191.902,30.33 193.319,30.33 C 195.091,30.33 196.38,30.747 197.286,31.483 C 198.171,32.202 198.622,33.157 198.622,34.435 C 198.622,35.636 197.325,37.211 193.585,39.019 C 192.386,39.592 191.43,40.067 190.722,40.439 C 187.357,42.19 184.915,43.958 183.513,45.766 C 182.098,47.592 181.403,49.761 181.403,52.226 C 181.403,55.639 182.772,58.47 185.463,60.654 C 188.145,62.831 191.587,63.883 195.712,63.883 C 198.121,63.883 200.247,63.463 202.067,62.586 C 203.888,61.709 205.473,60.348 206.827,58.533 C 207.097,58.173 207.054,57.67 206.731,57.36 L 201.919,52.756 C 201.491,52.346 200.787,52.464 200.516,52.99 C 200.011,53.971 199.361,54.664 198.584,55.114 C 197.801,55.566 196.822,55.814 195.608,55.814 C 194.144,55.814 193.059,55.449 192.267,54.805 C 191.487,54.168 191.113,53.376 191.113,52.357 C 191.113,50.961 192.503,49.337 196.449,47.66 C 197.23,47.331 197.839,47.066 198.266,46.868 C 201.562,45.365 204.077,43.631 205.743,41.637 C 207.428,39.626 208.279,37.309 208.279,34.722 C 208.279,30.923 206.971,27.819 204.32,25.508 C 201.682,23.208 198.182,22.103 193.917,22.103 C 190.903,22.103 188.269,22.624 186.04,23.7 Z M 167.884,34.481 C 169.96,36.719 171.016,39.523 171.016,42.967 C 171.016,46.369 169.951,49.183 167.843,51.47 C 165.742,53.745 163.145,54.876 159.99,54.876 C 156.777,54.876 154.155,53.747 152.058,51.482 C 149.951,49.206 148.887,46.389 148.887,42.967 C 148.887,39.487 149.939,36.671 152.004,34.455 C 154.06,32.249 156.696,31.136 159.99,31.136 C 163.207,31.136 165.815,32.252 167.884,34.481 Z" stroke-width="0.15" stroke="none" fill-rule="evenodd" fill="#fbb040" marker-start="none" marker-end="none"/>
  <g id="Group" fill-rule="nonzero" stroke-linejoin="miter" stroke="none" stroke-width="0.214" fill="#c7c7c7">
   <path d="M 85.263,3.096 C 84.166,4.224 83.615,5.74 83.615,7.644 C 83.615,9.357 84.195,10.793 85.355,11.953 C 86.514,13.116 87.942,13.698 89.634,13.698 C 91.334,13.698 92.754,13.088 93.894,11.867 C 95.039,10.649 95.609,9.12 95.609,7.289 L 95.609,6.721 L 87.186,6.721 C 87.234,5.966 87.485,5.348 87.937,4.873 C 88.388,4.396 88.918,4.159 89.524,4.159 C 90.604,4.159 91.448,4.648 92.063,5.623 L 95.292,4.555 C 94.09,2.455 92.228,1.406 89.701,1.406 C 87.841,1.406 86.361,1.97 85.263,3.096 Z M 135.529,3.266 C 134.45,4.508 133.91,5.93 133.91,7.534 C 133.91,9.357 134.491,10.844 135.652,11.996 C 136.816,13.152 138.31,13.729 140.133,13.729 C 141.824,13.729 143.243,13.142 144.393,11.967 C 145.544,10.79 146.12,9.33 146.12,7.589 C 146.12,5.815 145.544,4.339 144.393,3.164 C 143.243,1.993 141.806,1.406 140.077,1.406 C 138.128,1.406 136.612,2.027 135.529,3.266 Z M 98.521,3.231 C 97.565,4.415 97.087,5.859 97.087,7.565 C 97.087,9.267 97.582,10.717 98.569,11.922 C 99.558,13.127 100.743,13.729 102.128,13.729 C 102.915,13.729 103.576,13.585 104.12,13.297 C 104.659,13.006 105.213,12.538 105.779,11.887 L 105.779,19.992 L 109.324,19.992 L 109.324,1.657 L 105.864,1.657 L 105.864,3.677 L 105.808,3.677 C 104.784,2.199 103.51,1.462 101.988,1.462 C 100.633,1.462 99.477,2.05 98.521,3.231 Z M 112.89,1.657 L 112.89,13.467 L 116.406,13.467 L 116.406,1.657 L 112.89,1.657 Z M 119.892,1.657 L 119.892,10.238 L 118.548,10.238 L 118.548,13.467 L 119.892,13.467 L 119.892,17.52 L 123.406,17.52 L 123.406,13.467 L 125.099,13.467 L 125.099,10.238 L 123.406,10.238 L 123.406,1.657 L 119.892,1.657 Z M 127.222,1.657 L 127.222,13.467 L 130.738,13.467 L 130.738,1.657 L 127.222,1.657 Z M 149.289,1.657 L 149.289,13.467 L 152.805,13.467 L 152.805,12.069 C 154.004,13.193 155.265,13.754 156.583,13.754 C 157.71,13.754 158.642,13.293 159.379,12.369 C 160.114,11.445 160.483,10.264 160.483,8.828 L 160.483,1.657 L 156.912,1.657 L 156.912,8.259 C 156.912,8.94 156.727,9.512 156.356,9.976 C 155.985,10.443 155.535,10.677 155.001,10.677 C 154.362,10.677 153.836,10.382 153.42,9.792 C 153.009,9.202 152.805,8.442 152.805,7.511 L 152.805,1.657 L 149.289,1.657 Z M 141.871,5.483 C 142.396,6.065 142.658,6.748 142.658,7.534 C 142.658,8.332 142.396,9.028 141.871,9.621 C 141.351,10.217 140.743,10.514 140.045,10.514 C 139.326,10.514 138.703,10.234 138.18,9.676 C 137.658,9.118 137.397,8.453 137.397,7.675 C 137.397,6.82 137.655,6.095 138.172,5.501 C 138.691,4.906 139.314,4.611 140.045,4.611 C 140.743,4.611 141.351,4.902 141.871,5.483 Z M 104.966,5.495 C 105.472,6.048 105.722,6.739 105.722,7.565 C 105.722,8.276 105.477,8.899 104.985,9.433 C 104.496,9.97 103.897,10.238 103.183,10.238 C 102.605,10.238 102.064,9.973 101.561,9.438 C 101.06,8.91 100.81,8.194 100.81,7.289 C 100.81,6.565 101.033,5.947 101.476,5.435 C 101.918,4.92 102.457,4.666 103.086,4.666 C 103.839,4.666 104.466,4.941 104.966,5.495 Z M 89.701,11.3 C 89.025,11.3 88.465,11.107 88.016,10.719 C 87.572,10.339 87.306,9.792 87.215,9.084 L 91.965,9.084 C 91.636,10.562 90.879,11.3 89.701,11.3 Z M 113.085,16.281 C 112.654,16.713 112.437,17.231 112.437,17.837 C 112.437,18.432 112.654,18.943 113.085,19.368 C 113.517,19.801 114.032,20.017 114.636,20.017 C 115.242,20.017 115.759,19.801 116.185,19.368 C 116.617,18.943 116.833,18.432 116.833,17.837 C 116.833,17.231 116.617,16.713 116.185,16.281 C 115.759,15.855 115.242,15.64 114.636,15.64 C 114.032,15.64 113.517,15.855 113.085,16.281 Z M 127.417,16.281 C 126.987,16.713 126.77,17.231 126.77,17.837 C 126.77,18.432 126.987,18.943 127.417,19.368 C 127.849,19.801 128.366,20.017 128.968,20.017 C 129.574,20.017 130.089,19.801 130.517,19.368 C 130.949,18.943 131.165,18.432 131.165,17.837 C 131.165,17.231 130.949,16.713 130.517,16.281 C 130.089,15.855 129.574,15.64 128.968,15.64 C 128.366,15.64 127.849,15.855 127.417,16.281 Z M 119.797,20.987 L 122.435,27.03 L 117.039,37.98 L 120.788,37.98 L 124.181,31.113 L 127.202,37.98 L 130.796,37.98 L 123.454,20.987 L 119.797,20.987 Z M 3.785,27.701 C 2.597,28.877 2.003,30.345 2.003,32.103 C 2.003,33.867 2.554,35.331 3.658,36.492 C 4.76,37.654 6.16,38.237 7.856,38.237 C 9.037,38.237 10.179,37.963 11.288,37.414 L 11.288,34.092 C 10.261,34.584 9.322,34.831 8.473,34.831 C 7.684,34.831 7.048,34.59 6.568,34.109 C 6.089,33.63 5.849,32.997 5.849,32.212 C 5.849,31.43 6.088,30.8 6.564,30.319 C 7.039,29.84 7.665,29.6 8.442,29.6 C 9.152,29.6 10.084,29.824 11.244,30.271 L 11.244,26.755 C 10.035,26.215 9.036,25.945 8.241,25.945 C 6.464,25.945 4.978,26.53 3.785,27.701 Z M 15.34,27.805 C 14.261,29.047 13.721,30.468 13.721,32.072 C 13.721,33.895 14.301,35.382 15.461,36.532 C 16.627,37.689 18.121,38.267 19.943,38.267 C 21.635,38.267 23.055,37.68 24.204,36.504 C 25.356,35.326 25.929,33.867 25.929,32.128 C 25.929,30.353 25.356,28.877 24.204,27.701 C 23.055,26.53 21.617,25.945 19.888,25.945 C 17.939,25.945 16.422,26.565 15.34,27.805 Z M 75.074,27.456 C 74.024,28.446 73.499,29.76 73.499,31.401 L 73.499,37.98 L 77.069,37.98 L 77.069,32.322 C 77.069,31.505 77.278,30.823 77.692,30.277 C 78.111,29.736 78.626,29.465 79.237,29.465 C 79.888,29.465 80.434,29.727 80.879,30.253 C 81.321,30.777 81.544,31.44 81.544,32.236 L 81.544,37.98 L 85.114,37.98 L 85.114,31.113 C 85.114,29.656 84.558,28.436 83.448,27.45 C 82.337,26.465 80.951,25.974 79.291,25.974 C 77.533,25.974 76.128,26.468 75.074,27.456 Z M 29.129,26.195 L 29.129,38.004 L 32.676,38.004 L 32.676,36.124 C 32.838,36.234 33.082,36.443 33.402,36.754 C 33.723,37.066 34.032,37.332 34.33,37.546 C 34.628,37.762 34.983,37.936 35.398,38.066 C 35.817,38.2 36.196,38.267 36.534,38.267 C 37.075,38.267 37.66,38.077 38.292,37.694 C 38.923,37.314 39.449,36.641 39.872,35.674 C 40.604,36.605 41.321,37.27 42.021,37.669 C 42.721,38.069 43.374,38.267 43.981,38.267 C 45.051,38.267 45.956,37.827 46.695,36.942 C 47.437,36.06 47.808,34.972 47.808,33.677 L 47.808,26.195 L 44.292,26.195 L 44.292,32.744 C 44.292,33.394 44.112,33.944 43.754,34.385 C 43.4,34.829 42.97,35.051 42.467,35.051 C 41.865,35.051 41.343,34.798 40.904,34.295 C 40.464,33.793 40.244,33.195 40.244,32.498 L 40.244,26.195 L 36.753,26.195 L 36.753,32.578 C 36.753,33.266 36.571,33.846 36.21,34.317 C 35.847,34.789 35.409,35.025 34.898,35.025 C 34.296,35.025 33.776,34.767 33.334,34.251 C 32.895,33.734 32.676,33.113 32.676,32.39 L 32.676,26.195 L 29.129,26.195 Z M 51.409,26.195 L 51.409,38.004 L 54.955,38.004 L 54.955,36.124 C 55.117,36.234 55.36,36.443 55.682,36.754 C 56.002,37.066 56.313,37.332 56.609,37.546 C 56.907,37.762 57.262,37.936 57.677,38.066 C 58.096,38.2 58.475,38.267 58.813,38.267 C 59.354,38.267 59.94,38.077 60.571,37.694 C 61.201,37.314 61.729,36.641 62.151,35.674 C 62.883,36.605 63.6,37.27 64.3,37.669 C 65,38.069 65.653,38.267 66.259,38.267 C 67.329,38.267 68.235,37.827 68.975,36.942 C 69.717,36.06 70.087,34.972 70.087,33.677 L 70.087,26.195 L 66.57,26.195 L 66.57,32.744 C 66.57,33.394 66.393,33.944 66.034,34.385 C 65.679,34.829 65.251,35.051 64.747,35.051 C 64.143,35.051 63.623,34.798 63.184,34.295 C 62.744,33.793 62.524,33.195 62.524,32.498 L 62.524,26.195 L 59.034,26.195 L 59.034,32.578 C 59.034,33.266 58.852,33.846 58.489,34.317 C 58.127,34.789 57.689,35.025 57.178,35.025 C 56.574,35.025 56.054,34.767 55.615,34.251 C 55.174,33.734 54.955,33.113 54.955,32.39 L 54.955,26.195 L 51.409,26.195 Z M 88.728,26.195 L 88.728,38.004 L 92.245,38.004 L 92.245,36.608 C 93.446,37.731 94.706,38.291 96.024,38.291 C 97.15,38.291 98.081,37.83 98.818,36.906 C 99.555,35.982 99.923,34.803 99.923,33.365 L 99.923,26.195 L 96.352,26.195 L 96.352,32.798 C 96.352,33.477 96.168,34.049 95.798,34.515 C 95.427,34.981 94.975,35.214 94.443,35.214 C 93.804,35.214 93.275,34.919 92.862,34.329 C 92.451,33.739 92.245,32.978 92.245,32.048 L 92.245,26.195 L 88.728,26.195 Z M 103.549,26.195 L 103.549,38.004 L 107.065,38.004 L 107.065,26.195 L 103.549,26.195 Z M 110.691,26.195 L 110.691,34.775 L 109.348,34.775 L 109.348,38.004 L 110.691,38.004 L 110.691,42.058 L 114.208,42.058 L 114.208,38.004 L 115.9,38.004 L 115.9,34.775 L 114.208,34.775 L 114.208,26.195 L 110.691,26.195 Z M 21.684,30.021 C 22.207,30.603 22.47,31.286 22.47,32.072 C 22.47,32.868 22.207,33.565 21.684,34.16 C 21.161,34.753 20.553,35.051 19.855,35.051 C 19.136,35.051 18.513,34.772 17.99,34.215 C 17.47,33.657 17.209,32.991 17.209,32.212 C 17.209,31.358 17.467,30.632 17.983,30.04 C 18.5,29.445 19.126,29.148 19.855,29.148 C 20.553,29.148 21.161,29.438 21.684,30.021 Z M 103.746,40.82 C 103.313,41.251 103.097,41.769 103.097,42.375 C 103.097,42.968 103.313,43.48 103.746,43.906 C 104.176,44.339 104.694,44.555 105.295,44.555 C 105.902,44.555 106.418,44.339 106.846,43.906 C 107.277,43.48 107.493,42.968 107.493,42.375 C 107.493,41.769 107.277,41.251 106.846,40.82 C 106.418,40.392 105.902,40.179 105.295,40.179 C 104.694,40.179 104.176,40.392 103.746,40.82 Z" marker-start="none" marker-end="none"/>
  </g>
 </g>
</svg>
