<?xml version="1.0" standalone="no"?>
<!DOCTYPE svg PUBLIC "-//W3C//DTD SVG 1.1//EN" "http://www.w3.org/Graphics/SVG/1.1/DTD/svg11.dtd">
<!--Generator: Xara Designer (www.xara.com), SVG filter version: 6.1.0.18-->
<svg stroke-width="0.501" stroke-linejoin="bevel" fill-rule="evenodd" xmlns:xlink="http://www.w3.org/1999/xlink" xmlns="http://www.w3.org/2000/svg" version="1.1" overflow="visible" width="810pt" height="630pt" viewBox="0 0 810 630">
 <defs>
	</defs>
 <g id="Document" fill="none" stroke="black" font-family="Times New Roman" font-size="16" transform="scale(1 -1)">
  <g id="Spread" transform="translate(0 -630)">
   <g id="OS bird copy">
    <path d="M 117.051,282.717 C 131.434,282.717 143.301,287.756 152.662,297.838 C 162.02,307.918 166.699,320.545 166.699,335.721 C 166.699,350.754 161.965,363.401 152.5,373.66 C 143.031,383.924 131.217,389.053 117.051,389.053 C 102.672,389.053 90.75,383.942 81.281,373.717 C 71.815,363.488 67.082,350.826 67.082,335.721 C 67.082,320.403 71.742,307.737 81.063,297.729 C 90.387,287.721 102.383,282.717 117.051,282.717 Z M 201.602,335.721 C 201.602,324.377 199.49,313.643 195.262,303.53 C 191.035,293.41 184.946,284.522 177,276.863 C 168.762,268.983 159.473,262.951 149.137,258.758 C 138.805,254.569 128.11,252.471 117.051,252.471 C 107.369,252.471 97.887,254.117 88.598,257.404 C 79.313,260.692 70.805,265.408 63.071,271.549 C 53.098,279.5 45.457,289.004 40.145,300.061 C 34.832,311.117 32.18,323.004 32.18,335.721 C 32.18,347.141 34.27,357.852 38.465,367.863 C 42.656,377.871 48.797,386.78 56.895,394.584 C 64.84,402.313 74.074,408.313 84.588,412.578 C 95.102,416.838 105.926,418.971 117.051,418.971 C 128.11,418.971 138.86,416.838 149.301,412.578 C 159.742,408.313 168.977,402.313 177,394.584 C 185.02,386.78 191.125,377.854 195.317,367.807 C 199.508,357.764 201.602,347.069 201.602,335.721 Z" stroke="none" fill="#231f20" stroke-width="0.25" fill-rule="nonzero" stroke-linejoin="miter" marker-start="none" marker-end="none"/>
    <path d="M 117.051,282.717 C 131.434,282.717 143.301,287.756 152.662,297.838 C 162.02,307.918 166.699,320.545 166.699,335.721 C 166.699,350.754 161.965,363.401 152.5,373.66 C 143.031,383.924 131.217,389.053 117.051,389.053 C 102.672,389.053 90.75,383.942 81.281,373.717 C 71.815,363.488 67.082,350.826 67.082,335.721 C 67.082,320.403 71.742,307.737 81.063,297.729 C 90.387,287.721 102.383,282.717 117.051,282.717 Z M 201.602,335.721 C 201.602,324.377 199.49,313.643 195.262,303.53 C 191.035,293.41 184.946,284.522 177,276.863 C 168.762,268.983 159.473,262.951 149.137,258.758 C 138.805,254.569 128.11,252.471 117.051,252.471 C 107.369,252.471 97.887,254.117 88.598,257.404 C 79.313,260.692 70.805,265.408 63.071,271.549 C 53.098,279.5 45.457,289.004 40.145,300.061 C 34.832,311.117 32.18,323.004 32.18,335.721 C 32.18,347.141 34.27,357.852 38.465,367.863 C 42.656,377.871 48.797,386.78 56.895,394.584 C 64.84,402.313 74.074,408.313 84.588,412.578 C 95.102,416.838 105.926,418.971 117.051,418.971 C 128.11,418.971 138.86,416.838 149.301,412.578 C 159.742,408.313 168.977,402.313 177,394.584 C 185.02,386.78 191.125,377.854 195.317,367.807 C 199.508,357.764 201.602,347.069 201.602,335.721 Z" fill="none" stroke="#231f20" stroke-width="6" stroke-linejoin="round" stroke-linecap="round" marker-start="none" marker-end="none"/>
    <path d="M 207.125,256.701 L 231.297,415.396 L 266.852,415.396 L 297.422,321.957 C 298.07,320.006 298.773,317.15 299.535,313.39 C 300.293,309.635 300.998,305.334 301.648,300.494 C 302.227,305.404 302.875,309.797 303.6,313.664 C 304.324,317.527 305.008,320.363 305.66,322.174 L 336.77,415.396 L 371.781,415.396 L 396.063,256.701 L 363.869,256.701 L 352.27,352.414 C 351.402,359.498 350.824,364.846 350.535,368.457 C 350.246,372.072 350.102,375.43 350.102,378.541 C 350.102,380.199 350.121,381.447 350.156,382.279 C 350.191,383.111 350.246,383.849 350.32,384.5 C 349.234,378.287 348.203,372.922 347.23,368.404 C 346.254,363.887 345.367,360.471 344.574,358.162 L 310.971,256.701 L 291.893,256.701 L 258.832,358.162 C 258.541,359.099 257.91,361.701 256.934,365.967 C 255.961,370.226 254.604,376.443 252.869,384.611 L 252.869,379.947 C 252.869,372.576 252.219,363.545 250.918,352.847 L 250.809,352.414 L 239.32,256.701 L 207.125,256.701 Z" stroke="none" fill="#231f20" stroke-width="0.25" fill-rule="nonzero" stroke-linejoin="round" stroke-linecap="round" marker-start="none" marker-end="none"/>
    <path d="M 207.125,256.701 L 231.297,415.396 L 266.852,415.396 L 297.422,321.957 C 298.07,320.006 298.773,317.15 299.535,313.39 C 300.293,309.635 300.998,305.334 301.648,300.494 C 302.227,305.404 302.875,309.797 303.6,313.664 C 304.324,317.527 305.008,320.363 305.66,322.174 L 336.77,415.396 L 371.781,415.396 L 396.063,256.701 L 363.869,256.701 L 352.27,352.414 C 351.402,359.498 350.824,364.846 350.535,368.457 C 350.246,372.072 350.102,375.43 350.102,378.541 C 350.102,380.199 350.121,381.447 350.156,382.279 C 350.191,383.111 350.246,383.849 350.32,384.5 C 349.234,378.287 348.203,372.922 347.23,368.404 C 346.254,363.887 345.367,360.471 344.574,358.162 L 310.971,256.701 L 291.893,256.701 L 258.832,358.162 C 258.541,359.099 257.91,361.701 256.934,365.967 C 255.961,370.226 254.604,376.443 252.869,384.611 L 252.869,379.947 C 252.869,372.576 252.219,363.545 250.918,352.847 L 250.809,352.414 L 239.32,256.701 L 207.125,256.701 Z" fill="none" stroke="#231f20" stroke-width="6" stroke-linejoin="round" stroke-linecap="round" marker-start="none" marker-end="none"/>
    <path d="M 410.781,256.701 L 410.781,415.396 L 446.008,415.396 L 516.25,323.041 C 518.275,320.439 520.496,316.771 522.916,312.037 C 525.342,307.303 527.849,301.719 530.451,295.291 C 529.654,299.984 529.08,304.648 528.717,309.271 C 528.353,313.898 528.177,319.678 528.177,326.615 L 528.177,415.396 L 560.586,415.396 L 560.75,291.437 C 560.75,291.437 536.25,291.562 513.125,275 C 512.697,274.693 455.113,350.791 455.113,350.791 C 453.094,353.392 450.89,357.058 448.504,361.793 C 446.121,366.523 443.59,372.178 440.918,378.758 C 441.707,374.205 442.289,369.597 442.652,364.935 C 443.008,360.275 443.191,354.4 443.191,347.322 L 443.191,256.701 L 410.781,256.701 Z" stroke="none" fill="#231f20" stroke-width="0.25" fill-rule="nonzero" stroke-linejoin="round" stroke-linecap="round" marker-start="none" marker-end="none"/>
    <path d="M 410.781,256.701 L 410.781,415.396 L 446.008,415.396 L 516.25,323.041 C 518.275,320.439 520.496,316.771 522.916,312.037 C 525.342,307.303 527.849,301.719 530.451,295.291 C 529.654,299.984 529.08,304.648 528.717,309.271 C 528.353,313.898 528.177,319.678 528.177,326.615 L 528.177,415.396 L 560.586,415.396 L 560.75,291.437 C 560.75,291.437 536.25,291.562 513.125,275 C 512.697,274.693 455.113,350.791 455.113,350.791 C 453.094,353.392 450.89,357.058 448.504,361.793 C 446.121,366.523 443.59,372.178 440.918,378.758 C 441.707,374.205 442.289,369.597 442.652,364.935 C 443.008,360.275 443.191,354.4 443.191,347.322 L 443.191,256.701 L 410.781,256.701 Z" fill="none" stroke="#231f20" stroke-width="6" stroke-linejoin="round" stroke-linecap="round" marker-start="none" marker-end="none"/>
    <path d="M 586.75,288.625 C 586.801,281.625 586.824,415.396 586.824,415.396 L 595.503,415.179 C 595.503,415.179 605.993,398.616 620.624,388.402 C 620.75,382.004 620.621,295 620.5,267.75 C 620.5,267.75 609.551,281.25 586.75,288.625 Z" stroke="none" fill="#231f20" stroke-width="0.25" fill-rule="nonzero" stroke-linejoin="round" stroke-linecap="round" marker-start="none" marker-end="none"/>
    <path d="M 586.75,288.625 C 586.801,281.625 586.824,415.396 586.824,415.396 L 595.503,415.179 C 595.503,415.179 605.993,398.616 620.624,388.402 C 620.75,382.004 620.621,295 620.5,267.75 C 620.5,267.75 609.551,281.25 586.75,288.625 Z" fill="none" stroke="#231f20" stroke-width="6" stroke-linejoin="round" stroke-linecap="round" marker-start="none" marker-end="none"/>
    <path d="M 635.604,379.428 C 635.604,379.428 769.864,295.408 748.762,203.328 C 748.762,203.328 742.959,259.178 695.458,277.18 C 695.458,277.18 644.958,288.18 672.657,332.492 C 672.657,332.492 653.118,346.66 636.165,345.217 C 636.165,345.217 666.213,352.965 635.604,379.428 Z" stroke="none" fill="#d7d7d7" stroke-width="0.25" fill-rule="nonzero" stroke-linejoin="round" stroke-linecap="round" marker-start="none" marker-end="none"/>
    <path d="M 610.912,490.902 C 610.912,490.902 557.902,441.822 640.66,386.031 C 640.66,386.031 755.398,315.406 761.961,221.996 C 761.961,221.996 766.488,187.724 734.422,150.355 C 764.183,165.615 799.035,224.24 767.299,281.82 C 767.299,281.82 740.379,341.513 673.281,386.175 C 673.281,386.175 668.838,391.601 676.654,400.953 C 676.654,400.953 662.146,401.882 661.877,393.006 C 661.877,393.006 624.611,416.468 633.529,444.906 C 633.529,444.906 640.992,470.586 659.168,469.908 C 659.168,469.908 645.348,483.654 622.781,471.884 C 622.781,471.884 607.795,475.886 610.912,490.902 Z" stroke="none" fill="#c8c8c8" stroke-width="0.25" fill-rule="nonzero" stroke-linejoin="round" stroke-linecap="round" marker-start="none" marker-end="none"/>
    <path d="M 634.297,597.027 C 634.297,597.027 561.879,517.533 673.219,501.414 C 673.219,501.414 598.981,517.713 634.297,597.027 Z" stroke="none" fill="#c8c8c8" stroke-width="0.25" fill-rule="nonzero" stroke-linejoin="round" stroke-linecap="round" marker-start="none" marker-end="none"/>
    <path d="M 670.598,495.785 C 670.598,495.785 682.174,496.551 678.143,502.892 C 678.143,502.892 606.864,541.461 658.649,586.572 C 658.649,586.572 633.887,538.875 691.403,500.5 C 691.403,500.5 717.565,483.498 670.598,495.785 Z" stroke="none" fill="#c8c8c8" stroke-width="0.25" fill-rule="nonzero" stroke-linejoin="round" stroke-linecap="round" marker-start="none" marker-end="none"/>
    <path d="M 690.355,567.992 C 690.355,567.992 649.097,543.701 701.906,495.785 C 701.906,495.785 703.691,493.789 702.41,492.375 C 702.41,492.375 711.488,493.562 701.351,504.57 C 701.351,504.57 670.871,542.523 690.355,567.992 Z" stroke="none" fill="#c8c8c8" stroke-width="0.25" fill-rule="nonzero" stroke-linejoin="round" stroke-linecap="round" marker-start="none" marker-end="none"/>
    <path d="M 678.215,475.791 C 678.215,475.791 695.774,475.707 702.426,460.619 C 702.426,460.619 702.793,457.725 705.629,455.859 C 705.629,455.859 753.143,447.553 727.906,405.871 C 727.906,405.871 731.281,437.324 703.778,438.807 C 703.778,438.807 689.735,444.561 701.07,452.219 C 701.07,452.219 699.869,456.699 695.856,456.152 C 695.856,456.152 682.467,454.334 682.899,468.541 C 682.899,468.541 684.33,472.273 678.215,475.791 Z" stroke="none" fill="#c8c8c8" stroke-width="0.25" fill-rule="nonzero" stroke-linejoin="round" stroke-linecap="round" marker-start="none" marker-end="none"/>
    <path d="M 562.688,167.299 C 574.347,167.299 583.971,171.386 591.56,179.56 C 599.148,187.734 602.942,197.973 602.942,210.278 C 602.942,222.464 599.104,232.719 591.428,241.039 C 583.751,249.359 574.171,253.52 562.688,253.52 C 551.028,253.52 541.36,249.373 533.684,241.083 C 526.007,232.791 522.17,222.524 522.17,210.278 C 522.17,197.855 525.95,187.586 533.508,179.472 C 541.067,171.356 550.792,167.299 562.688,167.299 Z M 631.243,210.278 C 631.243,201.078 629.529,192.377 626.101,184.174 C 622.673,175.97 617.737,168.763 611.292,162.553 C 604.612,156.166 597.083,151.273 588.704,147.875 C 580.324,144.478 571.653,142.778 562.688,142.778 C 554.835,142.778 547.145,144.111 539.617,146.777 C 532.087,149.443 525.188,153.266 518.918,158.246 C 510.833,164.692 504.636,172.397 500.33,181.362 C 496.023,190.326 493.87,199.964 493.87,210.278 C 493.87,219.535 495.569,228.221 498.967,236.337 C 502.365,244.451 507.346,251.674 513.909,258.002 C 520.354,264.272 527.839,269.134 536.365,272.592 C 544.89,276.049 553.665,277.778 562.688,277.778 C 571.653,277.778 580.368,276.049 588.835,272.592 C 597.302,269.134 604.788,264.272 611.292,258.002 C 617.795,251.674 622.747,244.437 626.145,236.293 C 629.542,228.149 631.243,219.476 631.243,210.278 Z" stroke="none" fill="#fbb040" stroke-width="0.25" fill-rule="nonzero" stroke-linejoin="round" stroke-linecap="round" marker-start="none" marker-end="none"/>
    <path d="M 562.688,167.299 C 574.347,167.299 583.971,171.386 591.56,179.56 C 599.148,187.734 602.942,197.973 602.942,210.278 C 602.942,222.464 599.104,232.719 591.428,241.039 C 583.751,249.359 574.171,253.52 562.688,253.52 C 551.028,253.52 541.36,249.373 533.684,241.083 C 526.007,232.791 522.17,222.524 522.17,210.278 C 522.17,197.855 525.95,187.586 533.508,179.472 C 541.067,171.356 550.792,167.299 562.688,167.299 Z M 631.243,210.278 C 631.243,201.078 629.529,192.377 626.101,184.174 C 622.673,175.97 617.737,168.763 611.292,162.553 C 604.612,156.166 597.083,151.273 588.704,147.875 C 580.324,144.478 571.653,142.778 562.688,142.778 C 554.835,142.778 547.145,144.111 539.617,146.777 C 532.087,149.443 525.188,153.266 518.918,158.246 C 510.833,164.692 504.636,172.397 500.33,181.362 C 496.023,190.326 493.87,199.964 493.87,210.278 C 493.87,219.535 495.569,228.221 498.967,236.337 C 502.365,244.451 507.346,251.674 513.909,258.002 C 520.354,264.272 527.839,269.134 536.365,272.592 C 544.89,276.049 553.665,277.778 562.688,277.778 C 571.653,277.778 580.368,276.049 588.835,272.592 C 597.302,269.134 604.788,264.272 611.292,258.002 C 617.795,251.674 622.747,244.437 626.145,236.293 C 629.542,228.149 631.243,219.476 631.243,210.278 Z" fill="none" stroke="#fbb040" stroke-width="6" stroke-linejoin="round" stroke-linecap="round" marker-start="none" marker-end="none"/>
    <path d="M 636.283,162.553 L 651.576,179.867 C 653.51,175.121 656.615,171.386 660.892,168.661 C 665.169,165.937 669.974,164.574 675.306,164.574 C 681.752,164.574 686.849,166.098 690.599,169.145 C 694.348,172.191 696.224,176.293 696.224,181.449 C 696.224,187.543 689.984,193.608 677.504,199.643 C 673.461,201.576 670.266,203.158 667.924,204.389 C 656.674,210.247 648.881,215.975 644.545,221.572 C 640.208,227.166 638.041,233.832 638.041,241.567 C 638.041,252.171 642.245,260.887 650.653,267.714 C 659.06,274.539 669.974,277.953 683.392,277.953 C 691.184,277.953 697.908,276.591 703.563,273.866 C 709.218,271.142 714.212,266.879 718.549,261.078 L 702.289,245.522 C 700.355,249.271 697.792,252.07 694.598,253.915 C 691.404,255.761 687.553,256.684 683.041,256.684 C 677.592,256.684 673.197,255.322 669.857,252.597 C 666.517,249.872 664.847,246.342 664.847,242.006 C 664.847,235.208 671.469,228.998 684.711,223.373 C 687.347,222.26 689.369,221.381 690.775,220.737 C 701.674,215.756 709.745,210.131 714.989,203.862 C 720.232,197.591 722.855,190.444 722.855,182.416 C 722.855,170.345 718.738,160.721 710.507,153.544 C 702.274,146.366 691.215,142.778 677.328,142.778 C 667.484,142.778 659.047,144.478 652.015,147.875 C 644.984,151.273 639.74,156.166 636.283,162.553 Z" stroke="none" fill="#fbb040" stroke-width="0.25" fill-rule="nonzero" stroke-linejoin="round" stroke-linecap="round" marker-start="none" marker-end="none"/>
    <path d="M 636.283,162.553 L 651.576,179.867 C 653.51,175.121 656.615,171.386 660.892,168.661 C 665.169,165.937 669.974,164.574 675.306,164.574 C 681.752,164.574 686.849,166.098 690.599,169.145 C 694.348,172.191 696.224,176.293 696.224,181.449 C 696.224,187.543 689.984,193.608 677.504,199.643 C 673.461,201.576 670.266,203.158 667.924,204.389 C 656.674,210.247 648.881,215.975 644.545,221.572 C 640.208,227.166 638.041,233.832 638.041,241.567 C 638.041,252.171 642.245,260.887 650.653,267.714 C 659.06,274.539 669.974,277.953 683.392,277.953 C 691.184,277.953 697.908,276.591 703.563,273.866 C 709.218,271.142 714.212,266.879 718.549,261.078 L 702.289,245.522 C 700.355,249.271 697.792,252.07 694.598,253.915 C 691.404,255.761 687.553,256.684 683.041,256.684 C 677.592,256.684 673.197,255.322 669.857,252.597 C 666.517,249.872 664.847,246.342 664.847,242.006 C 664.847,235.208 671.469,228.998 684.711,223.373 C 687.347,222.26 689.369,221.381 690.775,220.737 C 701.674,215.756 709.745,210.131 714.989,203.862 C 720.232,197.591 722.855,190.444 722.855,182.416 C 722.855,170.345 718.738,160.721 710.507,153.544 C 702.274,146.366 691.215,142.778 677.328,142.778 C 667.484,142.778 659.047,144.478 652.015,147.875 C 644.984,151.273 639.74,156.166 636.283,162.553 Z" fill="none" stroke="#fbb040" stroke-width="6" stroke-linejoin="round" stroke-linecap="round" marker-start="none" marker-end="none"/>
    <g id="Group" fill-rule="nonzero" stroke-linejoin="miter" stroke="none" stroke-width="0.732" fill="#c7c7c7">
     <g id="Group_1">
      <path d="M 66.779,186.05 L 66.779,174.116 C 61.489,177.312 56.862,178.911 52.896,178.911 C 48.929,178.911 45.757,177.543 43.376,174.811 C 40.998,172.09 39.809,168.423 39.809,163.803 C 39.809,159.442 41.059,155.956 43.558,153.344 C 46.071,150.733 49.421,149.427 53.607,149.427 C 57.275,149.427 61.665,150.898 66.779,153.841 L 66.779,142.022 C 61.05,140.107 56.273,139.149 52.45,139.149 C 45.884,139.149 40.31,141.56 35.725,146.387 C 31.141,151.212 28.851,157.096 28.851,164.038 C 28.851,171.099 31.185,177.075 35.857,181.966 C 40.529,186.87 46.209,189.321 52.896,189.321 C 57.216,189.321 61.843,188.231 66.779,186.05 Z" marker-start="none" marker-end="none"/>
      <path d="M 75.772,164.251 C 75.772,171.468 78.159,177.423 82.927,182.116 C 87.699,186.82 93.355,189.172 99.901,189.172 C 107.139,189.172 113.123,186.808 117.847,182.083 C 122.586,177.368 124.953,171.401 124.953,164.184 C 124.953,157.022 122.612,151.074 117.928,146.337 C 113.248,141.601 107.35,139.232 100.229,139.232 C 93.114,139.232 87.259,141.584 82.663,146.288 C 78.067,151.003 75.772,156.991 75.772,164.251 Z M 100.378,179.421 C 96.292,179.5 92.992,178.088 90.48,175.191 C 87.98,172.294 86.729,168.548 86.729,163.953 C 86.729,159.624 88.005,156.033 90.563,153.18 C 93.117,150.327 96.342,148.9 100.229,148.9 C 104.317,148.9 107.619,150.304 110.129,153.112 C 112.654,155.933 113.914,159.647 113.914,164.251 C 113.914,168.791 112.68,172.438 110.214,175.191 C 107.744,177.944 104.467,179.357 100.378,179.421 Z" marker-start="none" marker-end="none"/>
      <path d="M 139.896,188.644 L 152.39,188.644 L 161.53,159.392 L 170.683,188.644 L 182.766,188.644 L 189.011,139.826 L 178.981,139.826 L 174.699,174.184 L 163.959,139.826 L 159.149,139.826 L 148.143,174.479 L 144.094,139.826 L 133.915,139.826 L 139.896,188.644 Z" marker-start="none" marker-end="none"/>
      <path d="M 202.883,188.644 L 215.375,188.644 L 224.517,159.392 L 233.67,188.644 L 245.753,188.644 L 251.996,139.826 L 241.968,139.826 L 237.686,174.184 L 226.944,139.826 L 222.136,139.826 L 211.128,174.479 L 207.08,139.826 L 196.902,139.826 L 202.883,188.644 Z" marker-start="none" marker-end="none"/>
      <path d="M 262.366,188.644 L 272.744,188.644 L 272.744,158.798 C 272.744,156.021 273.511,153.792 275.039,152.105 C 276.584,150.417 278.604,149.577 281.106,149.577 C 283.982,149.577 286.211,150.423 287.799,152.122 C 289.386,153.819 290.18,156.215 290.18,159.31 L 290.18,188.644 L 300.526,188.644 L 300.526,157.046 C 300.526,154.269 299.802,151.39 298.361,148.403 C 296.925,145.418 294.717,143.125 291.733,141.528 C 288.748,139.94 285.403,139.149 281.701,139.149 C 275.013,139.149 270.117,141.015 267.009,144.75 C 263.912,148.484 262.366,152.406 262.366,156.519 L 262.366,188.644 Z" marker-start="none" marker-end="none"/>
      <path d="M 345.644,188.644 L 355.958,188.644 L 355.958,139.826 L 345.759,139.826 L 323.334,171.439 L 323.334,139.826 L 312.857,139.826 L 312.857,188.644 L 323.184,188.644 L 345.644,157.259 L 345.644,188.644 Z" marker-start="none" marker-end="none"/>
      <path d="M 367.911,188.644 L 378.388,188.644 L 378.388,139.826 L 367.911,139.826 L 367.911,188.644 Z" marker-start="none" marker-end="none"/>
      <path d="M 387.532,188.644 L 420.37,188.644 L 420.37,178.282 L 409.166,178.282 L 409.166,139.826 L 398.654,139.826 L 398.654,178.282 L 387.532,178.282 L 387.532,188.644 Z" marker-start="none" marker-end="none"/>
      <path d="M 426.289,188.644 L 437.941,188.644 L 446.93,173.472 L 456.087,188.644 L 467.788,188.644 L 452.252,162.664 L 452.252,139.826 L 441.843,139.826 L 441.843,162.664 L 426.289,188.644 Z" marker-start="none" marker-end="none"/>
     </g>
    </g>
    <g id="Group_2" fill-rule="nonzero" stroke-linejoin="miter" stroke="none" stroke-width="0.732" fill="#c7c7c7">
     <g id="Group_3">
      <path d="M 348.635,114.971 L 376.118,114.971 L 376.118,105.302 L 359.162,105.302 L 359.162,95.455 L 376.118,95.455 L 376.118,85.935 L 359.162,85.935 L 359.162,75.819 L 376.118,75.819 L 376.118,66.152 L 348.635,66.152 L 348.635,114.971 Z" marker-start="none" marker-end="none"/>
      <path d="M 387.474,114.971 L 404.134,114.971 C 411.251,114.971 416.975,112.727 421.305,108.243 C 425.645,103.761 427.816,97.848 427.816,90.511 C 427.816,83.152 425.578,77.25 421.105,72.81 C 416.632,68.373 410.678,66.152 403.241,66.152 L 387.474,66.152 L 387.474,114.971 Z M 398.069,105.747 L 398.069,75.605 L 402.234,75.605 C 406.554,75.605 410.101,76.779 412.878,79.125 C 415.651,81.483 417.039,85.416 417.039,90.924 C 417.039,94.119 416.369,96.952 415.025,99.42 C 413.691,101.887 411.752,103.557 409.207,104.427 C 406.662,105.308 404.237,105.747 401.935,105.747 L 398.069,105.747 Z" marker-start="none" marker-end="none"/>
      <path d="M 438.182,114.971 L 448.659,114.971 L 448.659,66.152 L 438.182,66.152 L 438.182,114.971 Z" marker-start="none" marker-end="none"/>
      <path d="M 457.803,114.971 L 490.641,114.971 L 490.641,104.608 L 479.437,104.608 L 479.437,66.152 L 468.925,66.152 L 468.925,104.608 L 457.803,104.608 L 457.803,114.971 Z" marker-start="none" marker-end="none"/>
      <path d="M 499.767,114.971 L 510.244,114.971 L 510.244,66.152 L 499.767,66.152 L 499.767,114.971 Z" marker-start="none" marker-end="none"/>
      <path d="M 521.14,90.578 C 521.14,97.795 523.527,103.75 528.296,108.442 C 533.067,113.146 538.724,115.498 545.27,115.498 C 552.507,115.498 558.492,113.134 563.216,108.41 C 567.955,103.694 570.322,97.728 570.322,90.511 C 570.322,83.349 567.982,77.4 563.298,72.664 C 558.618,67.928 552.718,65.558 545.598,65.558 C 538.483,65.558 532.629,67.91 528.033,72.614 C 523.437,77.329 521.14,83.317 521.14,90.578 Z M 545.748,105.747 C 541.661,105.826 538.36,104.414 535.85,101.518 C 533.348,98.622 532.098,94.875 532.098,90.279 C 532.098,85.95 533.375,82.359 535.933,79.506 C 538.487,76.654 541.712,75.227 545.598,75.227 C 549.687,75.227 552.988,76.63 555.498,79.439 C 558.024,82.259 559.282,85.974 559.282,90.578 C 559.282,95.118 558.05,98.765 555.584,101.518 C 553.114,104.271 549.836,105.683 545.748,105.747 Z" marker-start="none" marker-end="none"/>
      <path d="M 614.038,114.971 L 624.351,114.971 L 624.351,66.152 L 614.153,66.152 L 591.728,97.765 L 591.728,66.152 L 581.25,66.152 L 581.25,114.971 L 591.578,114.971 L 614.038,83.587 L 614.038,114.971 Z" marker-start="none" marker-end="none"/>
     </g>
    </g>
   </g>
  </g>
 </g>
</svg>
